# xmcd CD database file
#
# Track frame offsets:
#	150
#	11809
#	28922
#	44780
#	57605
#	72382
#	88582
#	104207
#	117490
#	132117
#
# Disc length: 2007 seconds
#
# Revision: 0
# Processed by: cddbd v1.4PL0 Copyright (c) Steve Scherf et al.
# Submitted via: CDex 1.50Beta3
#
DISCID=9e07d50a
DTITLE=Montana Rose - Highway 191
DYEAR=1900
DGENRE=Country
TTITLE0=Highway 191 
TTITLE1=Maybe Baby 
TTITLE2=Out of My Head 
TTITLE3=Foolin' Around 
TTITLE4=Way Out West 
TTITLE5=Life in a Small Town 
TTITLE6=Just Ask Me 
TTITLE7=Stone Unturned 
TTITLE8=Hillbilly With a Record Deal 
TTITLE9=Blue Willow Belle 
EXTD=
EXTT0=
EXTT1=
EXTT2=
EXTT3=
EXTT4=
EXTT5=
EXTT6=
EXTT7=
EXTT8=
EXTT9=
PLAYORDER=
